# Blender 4.3.2
# www.blender.org
mtllib jiayi_logo.mtl
o jiayi_logo
v -1.617652 -1.078857 0.125000
v -1.440874 -1.052988 0.125000
v -1.317121 -1.023122 0.125000
v -1.221720 -0.990303 0.125000
v -1.149519 -0.957204 0.125000
v -1.096099 -0.926120 0.125000
v -1.048815 -0.891851 0.125000
v -1.015404 -0.862143 0.125000
v -1.000172 -0.846525 0.125000
v -0.979163 -0.822143 0.125000
v -1.404288 -0.822143 0.125000
v -1.321822 -0.579712 0.125000
v -0.873717 -0.579712 0.125000
v -0.827208 -0.442978 0.125000
v -1.424681 -0.442978 0.125000
v -1.342238 -0.200546 0.125000
v -0.469008 -0.200546 0.125000
v -0.493750 -0.063812 0.125000
v -0.836135 -0.063812 0.125000
v -0.640326 0.511826 0.125000
v 1.097253 0.511826 0.125000
v 0.901445 -0.063812 0.125000
v 0.556154 -0.063812 0.125000
v 0.418321 -0.200546 0.125000
v 1.314531 -0.200546 0.125000
v 1.232088 -0.442978 0.125000
v -0.537352 -0.442978 0.125000
v -0.583861 -0.579712 0.125000
v -0.101287 -0.579712 0.125000
v -0.291739 -1.036880 0.125000
v -0.323308 -1.102488 0.125000
v -0.352301 -1.150764 0.125000
v -0.383735 -1.193223 0.125000
v -0.410640 -1.223003 0.125000
v -0.439108 -1.249060 0.125000
v -0.469138 -1.271395 0.125000
v -0.500730 -1.290007 0.125000
v -0.533885 -1.304897 0.125000
v -0.568602 -1.316065 0.125000
v -0.604881 -1.323510 0.125000
v -0.633116 -1.326650 0.125000
v -0.662230 -1.327697 0.125000
v -0.846434 -1.327697 0.125000
v -0.815878 -1.085266 0.125000
v -0.648703 -1.085266 0.125000
v -0.635871 -1.084594 0.125000
v -0.626104 -1.083088 0.125000
v -0.616780 -1.080723 0.125000
v -0.607900 -1.077497 0.125000
v -0.599464 -1.073412 0.125000
v -0.591471 -1.068466 0.125000
v -0.583922 -1.062660 0.125000
v -0.576816 -1.055994 0.125000
v -0.570154 -1.048467 0.125000
v -0.562451 -1.037850 0.125000
v -0.556786 -1.028388 0.125000
v -0.551566 -1.018066 0.125000
v -0.462119 -0.822143 0.125000
v -0.695578 -0.822143 0.125000
v -0.738478 -0.889341 0.125000
v -0.787132 -0.952205 0.125000
v -0.841540 -1.010737 0.125000
v -0.901702 -1.064935 0.125000
v -0.984996 -1.126590 0.125000
v -1.077280 -1.181474 0.125000
v -1.178555 -1.229589 0.125000
v -1.311952 -1.278389 0.125000
v -1.458295 -1.317440 0.125000
v -1.645392 -1.350677 0.125000
v -0.498511 0.177979 0.125000
v 0.728525 0.178620 0.125000
v 0.759401 0.269394 0.125000
v -0.467406 0.269394 0.125000
v -0.199683 -0.201416 0.125000
v 0.172296 -0.200546 0.125000
v 0.289873 -0.063812 0.125000
v -0.213072 -0.063812 0.125000
v 0.030298 -1.339599 0.125000
v -0.224356 -1.339187 0.125000
v 0.053506 -0.522262 0.125000
v 1.044244 -0.522262 0.125000
v 0.782014 -1.293228 0.125000
v 0.526628 -1.293228 0.125000
v 0.550088 -1.224289 0.125000
v 0.070123 -1.224289 0.125000
v 0.632348 -0.982177 0.125000
v 0.706415 -0.764694 0.125000
v 0.226449 -0.764694 0.125000
v 0.152566 -0.981857 0.125000
v 0.286645 1.143311 0.125000
v 0.357324 1.350586 0.125000
v 0.604631 1.350586 0.125000
v 0.621688 1.346712 0.125000
v 0.635834 1.341935 0.125000
v 0.644534 1.337761 0.125000
v 0.649424 1.334697 0.125000
v 0.653587 1.331407 0.125000
v 0.657022 1.327893 0.125000
v 0.659730 1.324152 0.125000
v 0.661710 1.320187 0.125000
v 0.662963 1.315996 0.125000
v 0.663488 1.311579 0.125000
v 0.663285 1.306937 0.125000
v 0.662355 1.302070 0.125000
v 0.660697 1.296978 0.125000
v 0.658312 1.291660 0.125000
v 0.653369 1.283260 0.125000
v 0.646790 1.274354 0.125000
v 0.635471 1.261690 0.125000
v 0.625071 1.251600 0.125000
v 0.608659 1.237358 0.125000
v 0.576845 1.143769 0.125000
v 1.645402 1.143769 0.125000
v 1.562936 0.901337 0.125000
v 0.494378 0.901337 0.125000
v 0.467416 0.822052 0.125000
v 1.375116 0.822052 0.125000
v 1.292650 0.579621 0.125000
v -0.789626 0.579621 0.125000
v -0.707160 0.822052 0.125000
v 0.177560 0.822052 0.125000
v 0.204523 0.901337 0.125000
v -0.841055 0.901337 0.125000
v -0.758589 1.143769 0.125000
v -1.617652 -1.078857 -0.125000
v -1.440874 -1.052988 -0.125000
v -1.317121 -1.023122 -0.125000
v -1.221720 -0.990303 -0.125000
v -1.149519 -0.957204 -0.125000
v -1.096099 -0.926120 -0.125000
v -1.048815 -0.891851 -0.125000
v -1.015404 -0.862143 -0.125000
v -1.000172 -0.846525 -0.125000
v -0.979163 -0.822143 -0.125000
v -1.404288 -0.822143 -0.125000
v -1.321822 -0.579712 -0.125000
v -0.873717 -0.579712 -0.125000
v -0.827208 -0.442978 -0.125000
v -1.424681 -0.442978 -0.125000
v -1.342238 -0.200546 -0.125000
v -0.469008 -0.200546 -0.125000
v -0.493750 -0.063812 -0.125000
v -0.836135 -0.063812 -0.125000
v -0.640326 0.511826 -0.125000
v 1.097253 0.511826 -0.125000
v 0.901445 -0.063812 -0.125000
v 0.556154 -0.063812 -0.125000
v 0.418321 -0.200546 -0.125000
v 1.314531 -0.200546 -0.125000
v 1.232088 -0.442978 -0.125000
v -0.537352 -0.442978 -0.125000
v -0.583861 -0.579712 -0.125000
v -0.101287 -0.579712 -0.125000
v -0.291739 -1.036880 -0.125000
v -0.323308 -1.102488 -0.125000
v -0.352301 -1.150764 -0.125000
v -0.383735 -1.193223 -0.125000
v -0.410640 -1.223003 -0.125000
v -0.439108 -1.249060 -0.125000
v -0.469138 -1.271395 -0.125000
v -0.500730 -1.290007 -0.125000
v -0.533885 -1.304897 -0.125000
v -0.568602 -1.316065 -0.125000
v -0.604881 -1.323510 -0.125000
v -0.633116 -1.326650 -0.125000
v -0.662230 -1.327697 -0.125000
v -0.846434 -1.327697 -0.125000
v -0.815878 -1.085266 -0.125000
v -0.648703 -1.085266 -0.125000
v -0.635871 -1.084594 -0.125000
v -0.626104 -1.083088 -0.125000
v -0.616780 -1.080723 -0.125000
v -0.607900 -1.077497 -0.125000
v -0.599464 -1.073412 -0.125000
v -0.591471 -1.068466 -0.125000
v -0.583922 -1.062660 -0.125000
v -0.576816 -1.055994 -0.125000
v -0.570154 -1.048467 -0.125000
v -0.562451 -1.037850 -0.125000
v -0.556786 -1.028388 -0.125000
v -0.551566 -1.018066 -0.125000
v -0.462119 -0.822143 -0.125000
v -0.695578 -0.822143 -0.125000
v -0.738478 -0.889341 -0.125000
v -0.787132 -0.952205 -0.125000
v -0.841540 -1.010737 -0.125000
v -0.901702 -1.064935 -0.125000
v -0.984996 -1.126590 -0.125000
v -1.077280 -1.181474 -0.125000
v -1.178555 -1.229589 -0.125000
v -1.311952 -1.278389 -0.125000
v -1.458295 -1.317440 -0.125000
v -1.645392 -1.350677 -0.125000
v -0.498511 0.177979 -0.125000
v 0.728525 0.178620 -0.125000
v 0.759401 0.269394 -0.125000
v -0.467406 0.269394 -0.125000
v -0.199683 -0.201416 -0.125000
v 0.172296 -0.200546 -0.125000
v 0.289873 -0.063812 -0.125000
v -0.213072 -0.063812 -0.125000
v 0.030298 -1.339599 -0.125000
v -0.224356 -1.339187 -0.125000
v 0.053506 -0.522262 -0.125000
v 1.044244 -0.522262 -0.125000
v 0.782014 -1.293228 -0.125000
v 0.526628 -1.293228 -0.125000
v 0.550088 -1.224289 -0.125000
v 0.070123 -1.224289 -0.125000
v 0.632348 -0.982177 -0.125000
v 0.706415 -0.764694 -0.125000
v 0.226449 -0.764694 -0.125000
v 0.152566 -0.981857 -0.125000
v 0.286645 1.143311 -0.125000
v 0.357324 1.350586 -0.125000
v 0.604631 1.350586 -0.125000
v 0.621688 1.346712 -0.125000
v 0.635834 1.341935 -0.125000
v 0.644534 1.337761 -0.125000
v 0.649424 1.334697 -0.125000
v 0.653587 1.331407 -0.125000
v 0.657022 1.327893 -0.125000
v 0.659730 1.324152 -0.125000
v 0.661710 1.320187 -0.125000
v 0.662963 1.315996 -0.125000
v 0.663488 1.311579 -0.125000
v 0.663285 1.306937 -0.125000
v 0.662355 1.302070 -0.125000
v 0.660697 1.296978 -0.125000
v 0.658312 1.291660 -0.125000
v 0.653369 1.283260 -0.125000
v 0.646790 1.274354 -0.125000
v 0.635471 1.261690 -0.125000
v 0.625071 1.251600 -0.125000
v 0.608659 1.237358 -0.125000
v 0.576845 1.143769 -0.125000
v 1.645402 1.143769 -0.125000
v 1.562936 0.901337 -0.125000
v 0.494378 0.901337 -0.125000
v 0.467416 0.822052 -0.125000
v 1.375116 0.822052 -0.125000
v 1.292650 0.579621 -0.125000
v -0.789626 0.579621 -0.125000
v -0.707160 0.822052 -0.125000
v 0.177560 0.822052 -0.125000
v 0.204523 0.901337 -0.125000
v -0.841055 0.901337 -0.125000
v -0.758589 1.143769 -0.125000
vn 0.6223 0.5511 0.5559
vn 0.4613 0.5351 0.7077
vn 0.3967 0.5848 0.7076
vn 0.3875 0.7357 0.5555
vn 0.2148 0.5599 0.8002
vn 0.1799 0.6834 0.7075
vn 0.0381 0.5113 0.8585
vn -0.5898 0.5133 0.6234
vn -0.2421 0.5941 0.7671
vn -0.5900 0.5129 0.6236
vn -0.4362 -0.7730 0.4607
vn -0.4265 -0.0802 0.9009
vn -0.2424 0.5940 0.7671
vn -0.5901 0.5129 0.6235
vn 0.4011 -0.3483 0.8473
vn 0.4362 0.7730 0.4607
vn 0.2606 0.0489 0.9642
vn 0.2424 -0.5940 0.7671
vn 0.5901 -0.5129 0.6235
vn 0.4264 0.0803 0.9009
vn 0.5407 -0.4386 0.7179
vn 0.4828 -0.5164 0.7072
vn 0.6068 -0.5688 0.5552
vn 0.4712 -0.3713 0.8001
vn 0.5962 -0.3794 0.7075
vn 0.5379 -0.2654 0.8002
vn 0.6637 -0.2426 0.7076
vn 0.6878 -0.1616 0.7077
vn 0.8277 -0.0764 0.5559
vn 0.9464 0.0610 0.3171
vn 0.6868 0.1631 0.7083
vn 0.6487 0.2786 0.7083
vn 0.5936 0.3823 0.7082
vn -0.2954 0.7239 -0.6234
vn 0.0761 0.5071 -0.8585
vn 0.2031 0.6769 -0.7075
vn 0.2372 0.5508 -0.8002
vn 0.4148 0.7207 -0.5555
vn 0.4177 0.5700 -0.7076
vn 0.4837 0.5149 -0.7077
vn 0.6486 0.5199 -0.5559
vn 0.6136 0.3493 -0.7082
vn 0.6636 0.2408 -0.7083
vn 0.6951 0.1234 -0.7083
vn 0.9483 0.0097 -0.3171
vn 0.8231 -0.1164 -0.5559
vn 0.6804 -0.1904 -0.7077
vn 0.6547 -0.2660 -0.7076
vn 0.5278 -0.2849 -0.8002
vn 0.5827 -0.3999 -0.7075
vn 0.4595 -0.3857 -0.8000
vn 0.5931 -0.5830 -0.5552
vn 0.4732 -0.5253 -0.7072
vn 0.6102 -0.3351 -0.7179
vn 0.2133 0.3779 -0.9009
vn 0.8723 0.1640 -0.4607
vn 0.2956 -0.7238 -0.6235
vn 0.4843 -0.4207 -0.7671
vn 0.1302 0.2310 -0.9642
vn 0.2006 -0.4919 -0.8473
vn -0.8723 -0.1640 -0.4607
vn -0.2956 0.7238 -0.6235
vn -0.4843 0.4207 -0.7671
vn -0.2132 -0.3780 -0.9009
vn -0.2953 0.7239 -0.6236
vn -0.4840 0.4211 -0.7671
vn -0.3277 0.2848 -0.9008
vn -0.1644 0.4019 0.9008
vn -0.6818 -0.1281 0.7202
vn -0.3409 -0.6042 -0.7202
vn 0.2938 -0.7204 0.6282
vn 0.5874 -0.5102 -0.6282
vn -0.2655 -0.4702 -0.8416
vn -0.6818 -0.1279 0.7203
vn 0.2920 -0.7159 0.6342
vn 0.5837 -0.5070 -0.6342
vn 0.6722 0.1263 0.7295
vn 0.3364 0.5955 -0.7295
vn -0.5504 0.8348 -0.0122
vn -0.2765 0.9609 0.0122
vn -0.7857 0.1577 0.5982
vn -0.3929 -0.6984 -0.5982
vn 0.2627 -0.5020 0.8240
vn 0.5250 -0.2129 -0.8240
vn 0.5310 0.0999 -0.8414
vn 0.2132 0.3779 0.9010
vn 0.6933 -0.6023 0.3957
vn 0.2911 -0.7127 -0.6383
vn 0.2121 0.3758 -0.9021
vn 0.4241 0.0800 0.9021
vn -0.8670 -0.1629 -0.4709
vn -0.4346 -0.7676 0.4710
vn -0.4791 0.4163 0.7728
vn -0.2399 0.5876 -0.7728
vn 0.3752 -0.9269 -0.0113
vn 0.7526 -0.6584 0.0113
vn -0.4779 0.4156 -0.7739
vn -0.1983 0.4863 0.8510
vn -0.3954 0.5858 -0.7075
vn -0.3756 0.5986 0.7075
vn -0.3680 0.4738 0.8001
vn -0.3835 0.4613 -0.8001
vn -0.6467 0.6934 0.3178
vn -0.6629 0.6779 -0.3178
vn -0.6068 0.5679 0.5562
vn -0.6183 0.5553 -0.5562
vn -0.3355 0.6220 -0.7075
vn -0.3152 0.6326 0.7075
vn -0.2134 -0.3776 -0.9010
vn -0.4262 -0.0804 0.9011
vn -0.3409 -0.6042 0.7202
vn -0.6818 -0.1282 -0.7202
vn -0.7011 0.6090 0.3708
vn -0.3509 0.8599 -0.3708
vn -0.2186 0.4042 0.8882
vn -0.4367 0.1432 -0.8882
vn -0.2547 0.2215 -0.9413
vn -0.1276 0.3125 0.9413
vn 0.1801 0.3803 -0.9072
vn 0.3606 0.2169 0.9072
vn 0.3979 -0.3483 -0.8487
vn 0.1993 -0.4898 0.8487
vn -0.9828 -0.1844 -0.0087
vn -0.4912 -0.8710 0.0087
vn -0.8576 -0.1610 0.4885
vn -0.4286 -0.7600 -0.4885
vn 0.4264 0.0802 -0.9010
vn 0.6929 -0.6019 0.3970
vn 0.3468 -0.8498 -0.3970
vn 0.2346 -0.9026 0.3609
vn 0.4691 -0.8060 -0.3609
vn 0.3129 -0.0931 0.9452
vn 0.1567 0.2865 -0.9452
vn 0.4882 0.8655 0.1121
vn 0.9766 0.1837 -0.1121
vn 0.8740 0.1093 -0.4734
vn 0.4370 0.7648 0.4734
vn 0.5498 -0.2407 0.7999
vn 0.5454 -0.2505 -0.7999
vn 0.6271 -0.3259 0.7074
vn 0.6168 -0.3451 -0.7074
vn 0.6987 -0.4508 0.5554
vn 0.6839 -0.4730 -0.5554
vn 0.4701 -0.3723 0.8003
vn 0.4578 -0.3873 -0.8003
vn 0.3130 -0.6335 -0.7076
vn 0.3361 -0.6216 0.7076
vn 0.2655 -0.6548 0.7076
vn 0.2411 -0.6642 -0.7076
vn 0.1919 -0.6801 0.7076
vn 0.1671 -0.6866 -0.7076
vn 0.1209 -0.6964 0.7074
vn 0.0995 -0.6997 -0.7074
vn 0.0813 -0.9445 0.3184
vn 0.0577 -0.9462 -0.3184
vn -0.0209 0.5992 -0.8003
vn -0.0105 0.5995 0.8003
vn -0.0606 0.7041 0.7075
vn -0.0842 0.7017 -0.7075
vn -0.1298 0.6947 0.7075
vn -0.1519 0.6902 -0.7075
vn -0.1965 0.6788 0.7075
vn -0.2190 0.6719 -0.7075
vn -0.2638 0.6556 0.7075
vn -0.2861 0.6462 -0.7075
vn -0.4367 0.4113 -0.8001
vn -0.4238 0.4246 0.8001
vn -0.7300 0.6052 0.3174
vn -0.7492 0.5814 -0.3174
vn -0.7836 0.5341 0.3173
vn -0.7989 0.5109 -0.3173
vn -0.5220 0.2959 0.7999
vn -0.5289 0.2835 -0.7999
vn -0.6351 0.3107 0.7072
vn -0.6392 0.3022 -0.7072
vn 0.4516 -0.3951 -0.8000
vn 0.4632 -0.3814 0.8000
vn 0.5028 -0.4959 0.7080
vn 0.4880 -0.5105 -0.7080
vn 0.5365 -0.6354 0.5554
vn 0.5159 -0.6522 -0.5554
vn 0.4012 -0.5818 0.7075
vn 0.3814 -0.5950 -0.7075
vn 0.3423 -0.6184 0.7074
vn 0.3230 -0.6287 -0.7074
vn -0.4864 0.7873 -0.3789
vn -0.8078 0.4516 0.3789
vn -0.1236 0.6959 0.7074
vn -0.1448 0.6918 -0.7074
vn -0.1874 0.6815 0.7075
vn -0.2087 0.6752 -0.7075
vn -0.2517 0.6604 0.7075
vn -0.2733 0.6518 -0.7075
vn -0.4487 0.0903 0.8891
vn -0.2245 -0.3989 -0.8891
vn -0.7011 0.6091 0.3708
vn -0.3509 0.8599 -0.3707
vn -0.4220 -0.2912 0.8585
vn -0.2114 -0.4672 -0.8585
vn -0.5874 0.5106 0.6279
vn -0.2943 0.7205 -0.6279
vn 0.6790 -0.5899 0.4370
vn 0.3399 -0.8328 -0.4370
vn 0.1696 -0.4151 0.8938
vn 0.3384 -0.2942 -0.8938
vn 0.3498 0.0661 0.9345
vn 0.1752 0.3098 -0.9345
vn 0.5991 -0.5767 0.5554
vn 0.5806 -0.5953 -0.5554
vn 0.3897 -0.4559 0.8002
vn 0.3740 -0.4688 -0.8002
vn 0.4012 -0.5817 0.7075
vn 0.3802 -0.5957 -0.7075
vn 0.0170 -0.9478 0.3183
vn 0.0114 -0.9479 -0.3183
vn -0.3407 -0.6430 0.6859
vn -0.6806 -0.2577 -0.6859
vn -0.7780 0.4905 0.3925
vn -0.3894 0.8332 -0.3925
vn -0.3297 0.6251 0.7075
vn -0.3510 0.6134 -0.7075
vn -0.5261 0.7891 0.3172
vn -0.5524 0.7709 -0.3172
vn -0.6024 0.7325 0.3172
vn -0.6260 0.7124 -0.3172
vn -0.6613 -0.0615 0.7476
vn -0.3307 -0.5760 -0.7476
vn 0.2931 -0.8828 0.3671
vn 0.5863 -0.7221 -0.3671
vn 0.5840 -0.3981 0.7074
vn 0.5717 -0.4156 -0.7074
vn 0.2834 -0.6475 0.7074
vn 0.2632 -0.6559 -0.7074
vn 0.2228 -0.6708 0.7074
vn 0.2026 -0.6771 -0.7074
vn 0.1628 -0.6878 0.7074
vn 0.1433 -0.6921 -0.7074
vn -0.2298 -0.6643 0.7112
vn -0.6454 -0.2784 -0.7113
vt 0.000000 0.000000
vt 0.000000 -0.000012
vt -0.000012 0.000000
s 1
usemtl material_0
f 98/1/1 97/1/2 96/1/3 95/1/4 94/1/5 93/1/6 92/1/7 91/1/8 90/1/9 124/1/10 123/1/11 122/2/12 121/1/13 120/1/14 119/1/11 118/1/15 117/1/16 116/1/17 115/1/18 114/1/19 113/1/16 112/1/20 111/1/21 110/1/22 109/1/23 108/1/24 107/3/25 106/1/26 105/1/27 104/1/28 103/1/29 102/1/30 101/1/31 100/2/32 99/1/33
f 215/1/34 216/1/35 217/1/36 218/1/37 219/3/38 220/1/39 221/1/40 222/1/41 223/1/42 224/1/43 225/1/44 226/2/45 227/1/46 228/1/47 229/1/48 230/1/49 231/1/50 232/1/51 233/1/52 234/1/53 235/1/54 236/1/55 237/1/56 238/1/57 239/1/58 240/1/59 241/3/56 242/1/60 243/1/61 244/1/62 245/1/63 246/1/64 247/1/61 248/2/65 214/1/66
f 195/1/67 71/1/68 72/1/69 196/1/70
f 196/1/70 72/1/69 73/1/71 197/1/72
f 211/1/73 87/1/74 88/1/75 212/1/76
f 212/1/76 88/1/75 89/1/77 213/1/78
f 199/1/79 75/1/80 76/1/81 200/1/82
f 200/1/82 76/1/81 77/1/83 201/1/84
f 205/1/85 81/1/86 82/1/87 206/1/88
f 194/1/89 70/1/90 71/1/68 195/1/67
f 197/1/72 73/1/71 70/1/90 194/1/89
f 203/1/91 79/1/92 80/1/93 204/1/94
f 204/1/94 80/1/93 81/1/86 205/1/85
f 202/1/95 78/1/96 79/1/92 203/1/91
f 210/1/97 86/1/98 87/1/74 211/1/73
f 213/1/78 89/1/77 86/1/98 210/1/97
f 130/1/99 6/1/100 7/1/101 131/1/102
f 131/1/102 7/1/101 8/1/103 132/1/104
f 132/1/104 8/1/103 9/1/105 133/1/106
f 129/1/107 5/1/108 6/1/100 130/1/99
f 138/1/109 14/1/110 15/1/111 139/1/112
f 139/1/112 15/1/111 16/1/113 140/1/114
f 140/1/114 16/1/113 17/1/115 141/1/116
f 137/1/117 13/1/118 14/1/110 138/1/109
f 198/1/119 74/1/120 75/1/80 199/1/79
f 209/1/121 85/1/122 78/1/96 202/1/95
f 207/1/123 83/1/124 84/1/125 208/1/126
f 208/1/126 84/1/125 85/1/122 209/1/121
f 220/1/39 96/1/3 97/1/2 221/1/40
f 217/1/36 93/1/6 94/1/5 218/1/37
f 219/1/38 95/1/4 96/1/3 220/1/39
f 228/1/47 104/1/28 105/1/27 229/1/48
f 225/1/44 101/1/31 102/1/30 226/1/45
f 218/1/37 94/1/5 95/1/4 219/1/38
f 227/1/46 103/1/29 104/1/28 228/1/47
f 226/1/45 102/1/30 103/1/29 227/1/46
f 145/1/127 21/1/86 22/1/128 146/1/129
f 146/1/129 22/1/128 23/1/130 147/1/131
f 147/1/131 23/1/130 24/1/132 148/1/133
f 148/1/133 24/1/132 25/1/134 149/1/135
f 153/1/136 29/1/137 30/1/138 154/1/139
f 154/1/139 30/1/138 31/1/140 155/1/141
f 155/1/141 31/1/140 32/1/142 156/1/143
f 156/1/143 32/1/142 33/1/144 157/1/145
f 161/1/146 37/1/147 38/1/148 162/1/149
f 162/1/149 38/1/148 39/1/150 163/1/151
f 163/1/151 39/1/150 40/1/152 164/1/153
f 164/1/153 40/1/152 41/1/154 165/1/155
f 169/1/156 45/1/157 46/1/158 170/1/159
f 170/1/159 46/1/158 47/1/160 171/1/161
f 171/1/161 47/1/160 48/1/162 172/1/163
f 172/1/163 48/1/162 49/1/164 173/1/165
f 177/1/166 53/1/167 54/1/168 178/1/169
f 178/1/169 54/1/168 55/1/170 179/1/171
f 179/1/171 55/1/170 56/1/172 180/1/173
f 180/1/173 56/1/172 57/1/174 181/1/175
f 185/1/176 61/1/177 62/1/178 186/1/179
f 186/1/179 62/1/178 63/1/180 187/1/181
f 187/1/181 63/1/180 64/1/182 188/1/183
f 188/1/183 64/1/182 65/1/184 189/1/185
f 125/1/186 1/1/187 2/1/188 126/1/189
f 126/1/189 2/1/188 3/1/190 127/1/191
f 127/1/191 3/1/190 4/1/192 128/1/193
f 128/1/193 4/1/192 5/1/108 129/1/107
f 206/1/88 82/1/87 83/1/124 207/1/123
f 233/1/52 109/1/23 110/1/22 234/1/53
f 234/1/53 110/1/22 111/1/21 235/1/54
f 235/1/54 111/1/21 112/1/20 236/1/55
f 236/1/55 112/1/20 113/1/16 237/1/56
f 241/1/56 117/1/16 118/1/15 242/1/60
f 242/1/60 118/1/15 119/1/11 243/1/61
f 243/1/61 119/1/11 120/1/14 244/1/62
f 244/1/62 120/1/14 121/1/13 245/1/63
f 221/1/40 97/1/2 98/1/1 222/1/41
f 214/1/66 90/1/9 91/1/8 215/1/34
f 215/1/34 91/1/8 92/1/7 216/1/35
f 216/1/35 92/1/7 93/1/6 217/1/36
f 133/1/106 9/1/105 10/1/194 134/1/195
f 134/1/195 10/1/194 11/1/111 135/1/112
f 135/1/112 11/1/111 12/1/196 136/1/197
f 136/1/197 12/1/196 13/1/118 137/1/117
f 141/1/116 17/1/115 18/1/198 142/1/199
f 142/1/199 18/1/198 19/1/111 143/1/112
f 143/1/112 19/1/111 20/1/200 144/1/201
f 144/1/201 20/1/200 21/1/86 145/1/127
f 149/1/135 25/1/134 26/1/202 150/1/203
f 150/1/203 26/1/202 27/1/204 151/1/205
f 151/1/205 27/1/204 28/1/206 152/1/207
f 152/1/207 28/1/206 29/1/137 153/1/136
f 157/1/145 33/1/144 34/1/208 158/1/209
f 158/1/209 34/1/208 35/1/210 159/1/211
f 159/1/211 35/1/210 36/1/212 160/1/213
f 160/1/213 36/1/212 37/1/147 161/1/146
f 165/1/155 41/1/154 42/1/214 166/1/215
f 166/1/215 42/1/214 43/1/216 167/1/217
f 167/1/217 43/1/216 44/1/218 168/1/219
f 168/1/219 44/1/218 45/1/157 169/1/156
f 173/1/165 49/1/164 50/1/220 174/1/221
f 174/1/221 50/1/220 51/1/222 175/1/223
f 175/1/223 51/1/222 52/1/224 176/1/225
f 176/1/225 52/1/224 53/1/167 177/1/166
f 181/1/175 57/1/174 58/1/226 182/1/227
f 182/1/227 58/1/226 59/1/228 183/1/229
f 183/1/229 59/1/228 60/1/230 184/1/231
f 184/1/231 60/1/230 61/1/177 185/1/176
f 189/1/185 65/1/184 66/1/232 190/1/233
f 190/1/233 66/1/232 67/1/234 191/1/235
f 191/1/235 67/1/234 68/1/236 192/1/237
f 192/1/237 68/1/236 69/1/238 193/1/239
f 193/1/239 69/1/238 1/1/187 125/1/186
f 201/1/84 77/1/83 74/1/120 198/1/119
f 222/1/41 98/1/1 99/1/33 223/1/42
f 223/1/42 99/1/33 100/1/32 224/1/43
f 224/1/43 100/1/32 101/1/31 225/1/44
f 229/1/48 105/1/27 106/1/26 230/1/49
f 230/1/49 106/1/26 107/1/25 231/1/50
f 231/1/50 107/1/25 108/1/24 232/1/51
f 232/1/51 108/1/24 109/1/23 233/1/52
f 237/1/56 113/1/16 114/1/19 238/1/57
f 238/1/57 114/1/19 115/1/18 239/1/58
f 239/1/58 115/1/18 116/1/17 240/1/59
f 240/1/59 116/1/17 117/1/16 241/1/56
f 245/1/63 121/1/13 122/1/12 246/1/64
f 246/1/64 122/1/12 123/1/11 247/1/61
f 247/1/61 123/1/11 124/1/10 248/1/65
f 248/1/65 124/1/10 90/1/9 214/1/66
f 39/1/150 38/1/148 48/1/162 47/1/160
f 38/1/148 37/1/147 49/1/164 48/1/162
f 41/1/154 40/1/152 46/1/158 45/1/157
f 40/1/152 39/1/150 47/1/160 46/1/158
f 37/1/147 36/1/212 50/1/220 49/1/164
f 32/1/142 56/1/172 55/1/170 33/1/144
f 34/1/208 33/1/144 54/1/168 53/1/167
f 36/1/212 35/1/210 51/1/222 50/1/220
f 34/1/208 53/1/167 52/1/224 35/1/210
f 63/1/180 7/1/101 6/1/100 64/1/182
f 62/1/178 61/1/177 10/1/194 9/1/105
f 32/1/142 31/1/140 57/1/174 56/1/172
f 63/1/180 62/1/178 8/1/103 7/1/101
f 64/1/182 6/1/100 5/1/108 65/1/184
f 42/1/214 45/1/157 44/1/218 43/1/216
f 20/1/200 73/1/71 72/1/69 21/1/86
f 17/1/115 74/1/120 77/1/83 18/1/198
f 65/1/184 5/1/108 4/1/192 66/1/232
f 59/1/228 28/1/206 13/1/118 60/1/230
f 31/1/140 30/1/138 58/1/226 57/1/174
f 66/1/232 4/1/192 3/1/190 67/1/234
f 29/1/137 28/1/206 58/1/226 30/1/138
f 67/1/234 3/1/190 2/1/188 68/1/236
f 68/1/236 2/1/188 1/1/187 69/1/238
f 28/1/206 27/1/204 14/1/110 13/1/118
f 22/1/128 21/1/86 72/1/69 71/1/68
f 10/1/194 13/1/118 12/1/196 11/1/111
f 18/1/198 70/1/90 20/1/200 19/1/111
f 26/1/202 24/1/132 74/1/120 27/1/204
f 60/1/230 13/1/118 10/1/194 61/1/177
f 14/1/110 17/1/115 16/1/113 15/1/111
f 23/1/130 71/1/68 76/1/81 24/1/132
f 27/1/204 74/1/120 17/1/115 14/1/110
f 18/1/198 77/1/83 71/1/68 70/1/90
f 23/1/130 22/1/128 71/1/68
f 26/1/202 25/1/134 24/1/132
f 24/1/132 76/1/81 75/1/80
f 45/1/157 42/1/214 41/1/154
f 52/1/224 51/1/222 35/1/210
f 55/1/170 54/1/168 33/1/144
f 59/1/228 58/1/226 28/1/206
f 9/1/105 8/1/103 62/1/178
f 70/1/90 73/1/71 20/1/200
f 77/1/83 76/1/81 71/1/68
f 75/1/80 74/1/120 24/1/132
f 87/1/74 86/1/98 82/1/87 81/1/86
f 87/1/74 81/1/86 80/1/93 88/1/75
f 84/1/125 86/1/98 89/1/77 85/1/122
f 89/1/77 80/1/93 79/1/92 85/1/122
f 84/1/125 83/1/124 82/1/87
f 86/1/98 84/1/125 82/1/87
f 79/1/92 78/1/96 85/1/122
f 80/1/93 89/1/77 88/1/75
f 172/1/163 162/1/149 163/1/151 171/1/161
f 173/1/165 161/1/146 162/1/149 172/1/163
f 170/1/159 164/1/153 165/1/155 169/1/156
f 171/1/161 163/1/151 164/1/153 170/1/159
f 174/1/221 160/1/213 161/1/146 173/1/165
f 179/1/171 180/1/173 156/1/143 157/1/145
f 178/1/169 157/1/145 158/1/209 177/1/166
f 175/1/223 159/1/211 160/1/213 174/1/221
f 176/1/225 177/1/166 158/1/209 159/1/211
f 130/1/99 131/1/102 187/1/181 188/1/183
f 134/1/195 185/1/176 186/1/179 133/1/106
f 181/1/175 155/1/141 156/1/143 180/1/173
f 132/1/104 186/1/179 187/1/181 131/1/102
f 129/1/107 130/1/99 188/1/183 189/1/185
f 168/1/219 169/1/156 166/1/215 167/1/217
f 196/1/70 197/1/72 144/1/201 145/1/127
f 201/1/84 198/1/119 141/1/116 142/1/199
f 128/1/193 129/1/107 189/1/185 190/1/233
f 137/1/117 152/1/207 183/1/229 184/1/231
f 182/1/227 154/1/139 155/1/141 181/1/175
f 127/1/191 128/1/193 190/1/233 191/1/235
f 182/1/227 152/1/207 153/1/136 154/1/139
f 126/1/189 127/1/191 191/1/235 192/1/237
f 125/1/186 126/1/189 192/1/237 193/1/239
f 138/1/109 151/1/205 152/1/207 137/1/117
f 196/1/70 145/1/127 146/1/129 195/1/67
f 136/1/197 137/1/117 134/1/195 135/1/112
f 144/1/201 194/1/89 142/1/199 143/1/112
f 198/1/119 148/1/133 150/1/203 151/1/205
f 134/1/195 137/1/117 184/1/231 185/1/176
f 140/1/114 141/1/116 138/1/109 139/1/112
f 200/1/82 195/1/67 147/1/131 148/1/133
f 141/1/116 198/1/119 151/1/205 138/1/109
f 195/1/67 201/1/84 142/1/199 194/1/89
f 195/1/67 146/1/129 147/1/131
f 148/1/133 149/1/135 150/1/203
f 199/1/79 200/1/82 148/1/133
f 165/1/155 166/1/215 169/1/156
f 159/1/211 175/1/223 176/1/225
f 157/1/145 178/1/169 179/1/171
f 152/1/207 182/1/227 183/1/229
f 186/1/179 132/1/104 133/1/106
f 144/1/201 197/1/72 194/1/89
f 195/1/67 200/1/82 201/1/84
f 199/1/79 148/1/133 198/1/119
f 210/1/97 211/1/73 205/1/85 206/1/88
f 211/1/73 212/1/76 204/1/94 205/1/85
f 213/1/78 210/1/97 208/1/126 209/1/121
f 213/1/78 209/1/121 203/1/91 204/1/94
f 206/1/88 207/1/123 208/1/126
f 209/1/121 202/1/95 203/1/91
f 204/1/94 212/1/76 213/1/78
f 206/1/88 208/1/126 210/1/97
